<?xml version="1.0" encoding="UTF-8" standalone="no"?>
<!DOCTYPE svg PUBLIC "-//W3C//DTD SVG 1.1//EN" "http://www.w3.org/Graphics/SVG/1.1/DTD/svg11.dtd">
<svg width="100%" height="100%" viewBox="0 0 1254 1254" version="1.1" xmlns="http://www.w3.org/2000/svg" xmlns:xlink="http://www.w3.org/1999/xlink" xml:space="preserve" xmlns:serif="http://www.serif.com/" style="fill-rule:evenodd;clip-rule:evenodd;stroke-linejoin:round;stroke-miterlimit:2;">
    <g id="Fundo" transform="matrix(1.551024,0,0,1.551024,-202.226324,-203.494231)">
        <path d="M234.623,262.477C235.028,262.291 235.085,261.646 235.49,261.46C235.969,261.241 237.736,262.519 244.677,265.009C321.935,292.725 321.681,293.379 328.418,295.732C363.892,308.119 503.714,362.497 518.38,368.778C532.168,374.684 569.378,388.91 582.671,395.121C617.776,411.523 675.101,445.393 670.082,518.683C670.067,518.916 670.623,521.038 672.906,517.931C674.073,516.342 697.891,487.546 692.267,459.552C688.176,439.192 672.046,430.877 671.833,430.421C671.346,429.378 672.482,429.754 704.5,429.708C748.666,429.644 773.046,426.918 791.31,446.672C800.185,456.272 802.051,453.769 812.128,461.937C822.107,470.024 830.139,488.404 824.505,486.479C820.55,485.128 796.685,476.973 772.783,493.882C757.937,504.384 747.71,518.272 747.023,519.077C739.038,528.423 692.645,582.726 618.41,603.167C576.834,614.616 557.806,613.449 546.451,614.156C545.066,614.242 544.986,614.247 532.794,624.861C514.954,640.393 480.637,669.186 476.077,673.012C366.974,764.554 366.622,764.005 321.471,801.456C318.65,803.795 318.507,801.355 318.985,800.819C339.003,778.369 419.791,678.596 528.997,558.97C578.609,504.625 579.583,505.586 583.402,500.461C585.064,498.229 574.435,499.796 571.474,500.007C525.661,503.285 458.852,510.782 456.629,510.006C453.763,509.006 389.617,436.638 387.361,434.622C380.749,428.71 390.541,432.819 394.464,433.647C396.306,434.036 400.56,434.934 417.403,438.927C428.034,441.447 530.399,465.711 550.486,469.584C581.98,475.658 584.587,478.734 584.072,475.79C583.863,474.594 496.682,443.163 458.637,430.09C363.893,397.533 363.547,398.824 355.528,395.445C353.145,394.441 240.807,268.604 234.623,262.477Z" style="fill:rgb(61,250,15);"/>
        <path d="M534.589,702.726C518.367,709.962 454.343,735.642 421.473,750.356C421.315,750.427 417.447,750.779 421.022,748.241C425.027,745.396 550.177,634.348 554.495,633.474C555.083,633.355 577.153,633.621 604.403,627.112C647.405,616.84 657.654,603.689 651.93,613.695C622.943,664.371 585.931,682.1 534.589,702.726Z" style="fill:rgb(60,250,15);"/>
        <path d="M736.587,450.846C742.876,451.71 763.16,451.019 766.519,451.343C770.457,451.724 780.405,461.305 780.418,461.509C780.527,463.261 779.337,462.559 758.503,462.384C752.026,462.329 744.192,455.066 736.313,452.657C735.154,452.303 735.872,451.789 735.785,451.617C736.052,451.36 736.32,451.103 736.587,450.846Z" style="fill:rgb(2,7,0);"/>
    </g>
</svg>
